<?xml version="1.0" encoding="UTF-8"?>
<svg width="22px" height="22px" viewBox="0 0 22 22" version="1.1" xmlns="http://www.w3.org/2000/svg" xmlns:xlink="http://www.w3.org/1999/xlink">
    <!-- Generator: Sketch 46.2 (44496) - http://www.bohemiancoding.com/sketch -->
    <title>Icons/22x22/navbar/white/AA</title>
    <desc>Created with Sketch.</desc>
    <defs></defs>
    <g id="Symbols" stroke="none" stroke-width="1" fill="none" fill-rule="evenodd">
        <g id="Icons/22x22/navbar/white/AA" fill="#FEFEFE">
            <g id="Icon" transform="translate(0.000000, 4.000000)">
                <path d="M7.16856566,7.4136303 L5.92713131,3.76373131 C5.64416162,2.93532727 5.45668687,2.18308485 5.2680404,1.44900404 L5.23054545,1.44900404 C5.04248485,2.20183232 4.83567677,2.97340808 4.59078788,3.74439798 L3.34876768,7.4136303 L7.16856566,7.4136303 Z M3.01014141,8.69314545 L1.69313131,12.6816707 L0,12.6816707 L4.3089899,0.000175757576 L6.28391919,0.000175757576 L10.6116566,12.6816707 L8.86228283,12.6816707 L7.50719192,8.69314545 L3.01014141,8.69314545 Z" id="Fill-1"></path>
                <path d="M18.501899,7.4136303 L17.2604646,3.76373131 C16.9774949,2.93532727 16.7900202,2.18308485 16.6013737,1.44900404 L16.5638788,1.44900404 C16.3758182,2.20183232 16.1690101,2.97340808 15.9241212,3.74439798 L14.682101,7.4136303 L18.501899,7.4136303 Z M14.3434747,8.69314545 L13.0264646,12.6816707 L11.3333333,12.6816707 L15.6423232,0.000175757576 L17.6172525,0.000175757576 L21.9449899,12.6816707 L20.1956162,12.6816707 L18.8405253,8.69314545 L14.3434747,8.69314545 Z" id="Fill-1"></path>
            </g>
        </g>
    </g>
</svg>