<?xml version="1.0" encoding="UTF-8"?>
<svg width="22px" height="22px" viewBox="0 0 22 22" version="1.1" xmlns="http://www.w3.org/2000/svg" xmlns:xlink="http://www.w3.org/1999/xlink">
    <!-- Generator: Sketch 46.2 (44496) - http://www.bohemiancoding.com/sketch -->
    <title>Icons/22x22/navbar/black/AA</title>
    <desc>Created with Sketch.</desc>
    <defs></defs>
    <g id="Symbols" stroke="none" stroke-width="1" fill="#ffffff" fill-rule="evenodd">
        <g id="Icons/22x22/navbar/black/AA" fill="#ffffff">
            <g id="Icon" transform="translate(0.000000, 4.000000)">
                <path d="M8.15733333,8.4362 L6.74466667,4.28286667 C6.42266667,3.3402 6.20933333,2.4842 5.99466667,1.64886667 L5.952,1.64886667 C5.738,2.50553333 5.50266667,3.38353333 5.224,4.26086667 L3.81066667,8.4362 L8.15733333,8.4362 Z M3.42533333,9.8922 L1.92666667,14.4308667 L0,14.4308667 L4.90333333,0.0002 L7.15066667,0.0002 L12.0753333,14.4308667 L10.0846667,14.4308667 L8.54266667,9.8922 L3.42533333,9.8922 Z" id="Fill-1"></path>
                <path d="M19.6752667,9.1426 C17.6199333,9.1006 15.2866,9.46326667 15.2866,11.4766 C15.2866,12.6966 16.0999333,13.2746 17.0632667,13.2746 C18.4119333,13.2746 19.2686,12.4186 19.5686,11.5406 C19.6326,11.3479333 19.6752667,11.1339333 19.6752667,10.9412667 L19.6752667,9.1426 Z M19.9532667,14.4312667 L19.8039333,13.1252667 L19.7399333,13.1252667 C19.1612667,13.9379333 18.0479333,14.6666 16.5706,14.6666 C14.4726,14.6666 13.4019333,13.1892667 13.4019333,11.6906 C13.4019333,9.18526667 15.6286,7.81526667 19.6326,7.8366 L19.6326,7.62326667 C19.6326,6.7666 19.3972667,5.2246 17.2772667,5.2246 C16.3139333,5.2246 15.3072667,5.52393333 14.5792667,5.99526667 L14.1512667,4.75393333 C15.0079333,4.19726667 16.2499333,3.8326 17.5559333,3.8326 C20.7246,3.8326 21.4952667,5.99526667 21.4952667,8.0726 L21.4952667,11.9479333 C21.4952667,12.8472667 21.5379333,13.7246 21.6666,14.4312667 L19.9532667,14.4312667 Z" id="Fill-3"></path>
            </g>
        </g>
    </g>
</svg>