<?xml version="1.0" encoding="UTF-8"?>
<svg width="130px" height="30px" viewBox="0 0 130 30" version="1.1" xmlns="http://www.w3.org/2000/svg" xmlns:xlink="http://www.w3.org/1999/xlink">
    <!-- Generator: Sketch 46.2 (44496) - http://www.bohemiancoding.com/sketch -->
    <title>Logo 130x30</title>
    <desc>Created with Sketch.</desc>
    <defs></defs>
    <g id="Symbols" stroke="none" stroke-width="1" fill="none" fill-rule="evenodd">
        <g id="Logo-130x30" fill="#FEFEFE">
            <g id="Page-1">
                <g id="Group-12" transform="translate(0.379972, 0.877157)">
                    <path d="M23.4069138,17.2296629 L23.3765574,17.2287956 L23.3765574,17.2296629 L21.2481357,17.2296629 L21.2481357,6.98450152 L23.3765574,6.98450152 L23.3765574,6.98652529 L23.4069138,6.98450152 C26.2367143,6.98450152 28.5307955,9.27916095 28.5307955,12.1072268 C28.5307955,14.9370273 26.2367143,17.2296629 23.4069138,17.2296629 L23.4069138,17.2296629 Z M14.405211,17.2296629 L12.2776566,17.2296629 L12.2776566,17.2287956 L12.2461437,17.2296629 C9.41778879,17.2296629 7.12428581,14.9370273 7.12428581,12.1072268 C7.12428581,9.27916095 9.41778879,6.98450152 12.2461437,6.98450152 L12.2776566,6.98652529 L12.2776566,6.98450152 L14.405211,6.98450152 L14.405211,17.2296629 Z M23.7555795,0.159212416 L23.7555795,0.142154975 L23.4511475,0.142154975 L12.2024882,0.142154975 L11.8983454,0.142154975 L11.8983454,0.159212416 C5.45294574,0.345687826 0.281650146,5.61643697 0.281650146,12.1072268 C0.281650146,18.599173 5.45294574,23.8690548 11.8983454,24.0555302 L11.8983454,24.0728768 L12.2024882,24.0728768 L14.405211,24.0728768 L14.405211,27.4658619 L21.2481357,27.4658619 L21.2481357,24.0728768 L23.4511475,24.0728768 L23.7555795,24.0728768 L23.7555795,24.0555302 C26.0707657,23.9884569 28.2156665,23.2572998 30.0211533,22.0572077 L35.2109518,10.2262826 C34.3236758,4.62884007 29.5640717,0.327473948 23.7555795,0.159212416 L23.7555795,0.159212416 Z" id="Fill-2"></path>
                    <path d="M50.150928,17.2237362 L42.4444342,17.2237362 L46.8790796,6.99216292 L50.150928,6.99216292 L50.150928,17.2237362 Z M50.150928,0.142010421 L49.8482307,0.142010421 L45.8388648,0.142010421 L42.5161332,0.142010421 L30.6742219,27.4660065 L38.0054521,27.4660065 L39.4764395,24.0727322 L50.150928,24.0727322 L50.150928,27.4660065 L57.0005023,27.4660065 L57.0005023,24.0727322 L57.0005023,17.2237362 L57.0005023,6.99216292 L57.0005023,0.142010421 L50.150928,0.142010421 Z" id="Fill-4"></path>
                    <polygon id="Fill-6" points="75.8294304 0.142010421 73.5749571 5.34568624 71.3933394 10.3784985 66.6924244 10.3784985 66.6924244 0.143455966 59.8437174 0.143455966 59.8437174 27.4642718 66.6924244 27.4642718 66.6924244 17.228651 71.3933394 17.228651 73.5749571 22.2611742 75.8297195 27.4660065 83.1615278 27.4660065 77.2408613 13.8035748 80.1920876 6.99331935 83.1065971 0.142010421"></polygon>
                    <polygon id="Fill-8" points="121.997966 0.143427056 121.978307 0.168868662 110.61863 15.8648942 110.61863 0.143427056 103.769923 0.143427056 103.769923 27.4659776 110.61863 27.4659776 110.623255 27.4659776 121.978307 11.777758 121.978307 27.4659776 128.827881 27.4659776 128.827881 0.143427056"></polygon>
                    <polygon id="Fill-10" points="103.829537 0.143427056 82.070975 0.14198151 79.18422 6.99329044 88.1514363 6.99329044 88.1514363 27.4659776 95.0036126 27.4659776 95.0036126 6.99329044 100.847954 6.99329044"></polygon>
                </g>
            </g>
        </g>
    </g>
</svg>