<?xml version="1.0" encoding="UTF-8"?>
<svg width="22px" height="22px" viewBox="0 0 22 22" version="1.1" xmlns="http://www.w3.org/2000/svg" xmlns:xlink="http://www.w3.org/1999/xlink">
    <!-- Generator: Sketch 46.2 (44496) - http://www.bohemiancoding.com/sketch -->
    <title>Icons/22x22/navbar/black/share</title>
    <desc>Created with Sketch.</desc>
    <defs>
        <polygon id="path-1" points="0.000272727273 0 16.8554545 0 16.8554545 19.9995455 0.000272727273 19.9995455"></polygon>
    </defs>
    <g id="Symbols" stroke="none" stroke-width="1" fill="none" fill-rule="evenodd">
        <g id="Icons/22x22/navbar/black/share">
            <g id="Icon" transform="translate(2.000000, 1.000000)">
                <mask id="mask-2" fill="white">
                    <use xlink:href="#path-1"></use>
                </mask>
                <g id="Clip-2"></g>
                <path d="M13.6775455,13.6440909 C12.8866364,13.6440909 12.1720909,13.9431818 11.6157273,14.4213636 L6.21936364,10.9631818 C6.29936364,10.685 6.35572727,10.3968182 6.35572727,10.0931818 C6.35572727,9.775 6.29481818,9.47409091 6.20845455,9.18590909 L11.6466364,5.60318182 C12.1993636,6.06590909 12.9011818,6.35590909 13.6775455,6.35590909 C15.433,6.35590909 16.8557273,4.93318182 16.8557273,3.17772727 C16.8557273,1.42318182 15.433,-0.000454545455 13.6775455,-0.000454545455 C11.9220909,-0.000454545455 10.4993636,1.42318182 10.4993636,3.17772727 C10.4993636,3.49590909 10.5602727,3.79590909 10.6475455,4.085 L5.20936364,7.66681818 C4.65663636,7.20409091 3.95481818,6.915 3.17754545,6.915 C1.423,6.915 0.000272727273,8.33772727 0.000272727273,10.0931818 C0.000272727273,11.8477273 1.423,13.2704545 3.17754545,13.2704545 C3.96845455,13.2704545 4.68209091,12.9713636 5.23845455,12.4931818 L10.6357273,15.9522727 C10.5557273,16.2304545 10.4993636,16.5186364 10.4993636,16.8222727 C10.4993636,18.5777273 11.9220909,19.9995455 13.6775455,19.9995455 C15.433,19.9995455 16.8557273,18.5777273 16.8557273,16.8222727 C16.8557273,15.0668182 15.433,13.6440909 13.6775455,13.6440909" id="Fill-1" fill="#1F2328" mask="url(#mask-2)"></path>
            </g>
        </g>
    </g>
</svg>