<?xml version="1.0" encoding="UTF-8"?>
<svg width="36px" height="36px" viewBox="0 0 36 36" version="1.1" xmlns="http://www.w3.org/2000/svg" xmlns:xlink="http://www.w3.org/1999/xlink">
    <!-- Generator: Sketch 46.2 (44496) - http://www.bohemiancoding.com/sketch -->
    <title>Icon/36x36/twitter</title>
    <desc>Created with Sketch.</desc>
    <defs></defs>
    <g id="Symbols" stroke="none" stroke-width="1" fill="none" fill-rule="evenodd">
        <g id="Icon/36x36/twitter">
            <g id="twitter">
                <rect id="Rectangle-4" fill="#1F2328" x="0" y="0" width="36" height="36"></rect>
                <path d="M25,14.3021586 C24.4848897,14.5230221 23.9313215,14.6722943 23.3503054,14.7394296 C23.9433556,14.3957322 24.3987563,13.85152 24.6132192,13.2030894 C24.0582684,13.5212892 23.4435568,13.7524012 22.789312,13.876968 C22.2653425,13.3372611 21.5188705,13 20.6927686,13 C19.1064706,13 17.8204104,14.2433409 17.8204104,15.7769086 C17.8204104,15.9945539 17.8458612,16.2065056 17.8948169,16.4097435 C15.507663,16.29394 13.3912506,15.188385 11.9746077,13.5083177 C11.7273712,13.9184573 11.5857274,14.3954847 11.5857274,14.9043965 C11.5857274,15.8678087 12.092849,16.7177938 12.8635429,17.2157639 C12.3926771,17.2013566 11.9498226,17.0764432 11.5625297,16.8684523 C11.5623249,16.8800376 11.5623249,16.8916724 11.5623249,16.9033568 C11.5623249,18.2488365 12.5523977,19.3712249 13.8663667,19.6262996 C13.6253265,19.6897713 13.3715864,19.7236855 13.1096017,19.7236855 C12.9245327,19.7236855 12.7445847,19.7063075 12.5692454,19.6738786 C12.9347233,20.7771562 13.9954644,21.5800079 15.2523355,21.6024359 C14.2693295,22.3472126 13.0308424,22.7911675 11.685175,22.7911675 C11.4533524,22.7911675 11.2247046,22.7780473 11,22.7524012 C12.2711072,23.540301 13.7808991,24 15.4029409,24 C20.6860602,24 23.5750612,19.7685414 23.5750612,16.0989207 C23.5750612,15.9785127 23.572296,15.8587484 23.5667654,15.7396772 C24.1279125,15.3481533 24.6149091,14.8590454 25,14.3021586" id="Shape" fill="#FFFFFF" fill-rule="nonzero"></path>
            </g>
        </g>
    </g>
</svg>